<svg width="22" height="22" viewBox="0 0 22 22" fill="none"
  xmlns="http://www.w3.org/2000/svg">
  <path d="M22 8.20726V10.9573C22 11.4435 21.8068 11.9098 21.463 12.2536C21.1192 12.5974 20.6529 12.7906 20.1667 12.7906H1.83333C1.3471 12.7906 0.880788 12.5974 0.536971 12.2536C0.193154 11.9098 0 11.4435 0 10.9573V8.20726H1.83333V5.45726H20.1667V8.20726H22ZM1.83333 14.6239H20.1667V20.1239H18.3333V21.9573H13.75V20.1239H8.25V21.9573H3.66667V20.1239H1.83333V14.6239ZM15.5833 18.2906C15.8264 18.2906 16.0596 18.194 16.2315 18.0221C16.4034 17.8502 16.5 17.617 16.5 17.3739C16.5 17.1308 16.4034 16.8977 16.2315 16.7257C16.0596 16.5538 15.8264 16.4573 15.5833 16.4573C15.3402 16.4573 15.1071 16.5538 14.9352 16.7257C14.7632 16.8977 14.6667 17.1308 14.6667 17.3739C14.6667 17.617 14.7632 17.8502 14.9352 18.0221C15.1071 18.194 15.3402 18.2906 15.5833 18.2906ZM6.41667 18.2906C6.65978 18.2906 6.89294 18.194 7.06485 18.0221C7.23676 17.8502 7.33333 17.617 7.33333 17.3739C7.33333 17.1308 7.23676 16.8977 7.06485 16.7257C6.89294 16.5538 6.65978 16.4573 6.41667 16.4573C6.17355 16.4573 5.94039 16.5538 5.76849 16.7257C5.59658 16.8977 5.5 17.1308 5.5 17.3739C5.5 17.617 5.59658 17.8502 5.76849 18.0221C5.94039 18.194 6.17355 18.2906 6.41667 18.2906ZM8.25 2.70726H13.75V3.62393H20.1511C20.1161 3.12284 19.9436 2.6411 19.6525 2.23176C19.3614 1.82241 18.9629 1.50132 18.5011 1.30384C15.1342 -0.437822 6.864 -0.431405 3.50625 1.30384C3.04302 1.50026 2.64308 1.82089 2.35061 2.23032C2.05814 2.63974 1.88452 3.12203 1.84892 3.62393H8.25V2.70726Z" />
</svg>
