<svg width="21" height="43" viewBox="0 0 21 43" fill="none"
  xmlns="http://www.w3.org/2000/svg">
  <path d="M1.75714 11.5033C1.62631 10.5909 1.56067 9.67039 1.56073 8.7487V6.79429C1.56073 5.08493 2.23977 3.44557 3.44847 2.23687C4.65718 1.02816 6.29653 0.349121 8.0059 0.349121L13.5078 0.349121C14.3542 0.349121 15.1923 0.51583 15.9743 0.83973C16.7562 1.16363 17.4667 1.63838 18.0652 2.23687C18.6637 2.83536 19.1385 3.54587 19.4624 4.32783C19.7863 5.1098 19.953 5.9479 19.953 6.79429V8.75355C19.9528 9.67363 19.8872 10.5925 19.7566 11.5033L19.371 14.2118C19.2312 15.2134 19.1688 16.2243 19.1843 17.2356L19.3419 28.4601C19.35 29.1182 19.4537 29.7716 19.6499 30.3999C19.8558 31.0601 19.9605 31.7476 19.9603 32.4392V37.4246C19.9603 38.0793 19.8313 38.7276 19.5808 39.3325C19.3302 39.9373 18.963 40.4869 18.5001 40.9498C18.0371 41.4128 17.4875 41.78 16.8827 42.0305C16.2778 42.2811 15.6295 42.41 14.9748 42.41H6.54373C5.88915 42.41 5.24098 42.2811 4.63626 42.0305C4.03153 41.7799 3.4821 41.4127 3.01936 40.9497C2.55661 40.4867 2.18962 39.9371 1.93934 39.3323C1.68906 38.7274 1.56041 38.0792 1.56073 37.4246V32.444C1.56173 31.7566 1.66637 31.0732 1.8711 30.4169C2.06492 29.7881 2.1686 29.1349 2.17906 28.477L2.33425 17.2525C2.34815 16.2412 2.28411 15.2303 2.14268 14.2288L1.75714 11.5033Z"/>
  <path d="M19.2498 12.0634C19.3705 11.2031 19.4296 10.3352 19.4268 9.46644V7.62358C19.4294 6.01236 18.7925 4.46596 17.6559 3.32392C16.5193 2.18189 14.976 1.53757 13.3647 1.53243H8.16109C7.36164 1.53243 6.57004 1.69005 5.83157 1.99628C5.09311 2.30251 4.42226 2.75133 3.85742 3.31708C3.29258 3.88282 2.84483 4.55438 2.53977 5.29333C2.23472 6.03229 2.07836 6.82414 2.07964 7.62358V9.46644C2.07921 10.3354 2.1408 11.2032 2.26393 12.0634L2.62765 14.6143C2.76094 15.5596 2.82173 16.5138 2.80951 17.4683L2.6616 28.06C2.65369 28.6827 2.55568 29.3009 2.37062 29.8955C2.17719 30.519 2.07909 31.1681 2.07964 31.8209V36.5226C2.07964 37.7696 2.575 38.9655 3.45674 39.8472C4.33849 40.7289 5.53439 41.2243 6.78136 41.2243H14.7323C15.9781 41.2224 17.1721 40.7262 18.0523 39.8446C18.9324 38.9631 19.4268 37.7683 19.4268 36.5226V31.8209C19.4273 31.1681 19.3292 30.519 19.1358 29.8955C18.95 29.301 18.8511 28.6828 18.8424 28.06L18.6994 17.4683C18.686 16.5137 18.7468 15.5595 18.8812 14.6143L19.2498 12.0634Z" />
  <path d="M2.82163 4.03727C2.29787 3.27103 4.56265 1.77249 5.2319 2.28898C5.90115 2.80546 3.25568 4.67742 2.82163 4.03727Z" fill="#E9E8D8"/>
  <path d="M2.05539 12.8685C2.05539 12.8685 0.99817 13.5935 0.828432 13.9427C0.658695 14.2918 0.828432 14.6119 0.944824 14.5828C1.06121 14.5537 2.42639 13.9718 2.42639 13.9718L2.05539 12.8685Z" />
  <path d="M3.70427 23.3364C3.70427 21.4669 3.68729 19.8568 3.63395 18.7074C3.52862 16.4813 3.24727 14.267 2.79254 12.0852C2.57188 16.462 2.47003 20.0144 2.45306 22.8999C2.85801 23.077 3.27992 23.1667 3.70427 23.3364Z" fill="#45474A"/>
  <path d="M2.45306 23.2297C2.37304 32.0997 3.02289 34.2966 3.02289 34.2966C3.47876 32.5168 3.6776 27.7496 3.70427 23.6444C3.2872 23.5231 2.86528 23.3219 2.45306 23.2297Z" fill="#45474A"/>
  <path d="M17.8094 23.3364C17.8094 21.4669 17.824 19.8568 17.8798 18.7074C17.9851 16.4813 18.2664 14.267 18.7212 12.0852C18.9418 16.462 19.0437 20.0144 19.0703 22.8999C18.6557 23.077 18.2338 23.1667 17.8094 23.3364Z" fill="#45474A"/>
  <path d="M19.0728 23.2297C19.1407 32.0997 18.4884 34.3063 18.4884 34.3063C18.0349 32.5265 17.8361 27.7593 17.8094 23.6541C18.2265 23.5231 18.646 23.3219 19.0728 23.2297Z" fill="#45474A"/>
  <path d="M5.25373 41.2122C5.13491 41.4547 4.55053 41.428 3.94675 41.1394C3.34297 40.8509 2.94772 40.412 3.06412 40.1695C3.18051 39.927 3.76489 39.9561 4.37109 40.2423C4.9773 40.5284 5.36284 40.9673 5.25373 41.2122Z" fill="#FFCC00"/>
  <path d="M18.6994 4.03727C19.2158 3.27103 16.9486 1.77249 16.2745 2.28898C15.6004 2.80546 18.2556 4.67742 18.6994 4.03727Z" fill="#E9E8D8"/>
  <path d="M19.4559 12.8685C19.4559 12.8685 20.5083 13.5959 20.6829 13.9427C20.8574 14.2894 20.6829 14.6119 20.5665 14.5828C20.4501 14.5537 19.0849 13.9718 19.0849 13.9718L19.4559 12.8685Z" />
  <path d="M16.26 41.2122C16.3764 41.4547 16.9608 41.428 17.567 41.1394C18.1732 40.8509 18.566 40.412 18.4496 40.1695C18.3332 39.927 17.7464 39.9561 17.1426 40.2423C16.5388 40.5284 16.1436 40.9673 16.26 41.2122Z" fill="#FFCC00"/>
  <path d="M10.7556 32.4174C15.033 32.4174 16.9486 31.5759 16.9486 31.5759V37.9944C16.9486 37.9944 15.3701 39.767 10.7556 39.767C6.14849 39.767 4.56265 37.9944 4.56265 37.9944V31.5759C4.56265 31.5759 6.48069 32.4174 10.7556 32.4174ZM10.7556 7.3811C4.81726 7.3811 3.31387 10.6328 3.31387 10.6328L4.10921 17.0222C6.29798 16.5782 8.52267 16.3348 10.7556 16.2947C12.9894 16.3347 15.2149 16.5781 17.4045 17.0222L18.1974 10.6328C18.1974 10.6328 16.6965 7.3811 10.7556 7.3811Z" fill="#45474A"/>
</svg>
