<svg width="22" height="22" viewBox="0 0 22 22" fill="none"
  xmlns="http://www.w3.org/2000/svg">
  <path fill-rule="evenodd" clip-rule="evenodd" d="M0 11C0 17.0751 4.92489 22 11 22C17.0751 22 22 17.0751 22 11C22 4.92486 17.0751 0 11 0C4.92486 0 0 4.92489 0 11ZM10.0002 10.6818C10.0002 11.234 10.4479 11.6818 11.0002 11.6818C11.5524 11.6818 12.0002 11.234 12.0002 10.6818V5.72232C12.0002 5.17007 11.5524 4.72232 11.0002 4.72232C10.4479 4.72232 10.0002 5.17007 10.0002 5.72232V10.6818ZM4.43042 11.6999C4.43042 15.3283 7.37769 18.2799 11.0007 18.2799C14.6233 18.2799 17.5706 15.3283 17.5706 11.6999C17.5706 9.97428 16.9114 8.35123 15.7151 7.13053C15.3279 6.73502 14.6946 6.72965 14.301 7.11588C13.9065 7.5026 13.9001 8.1359 14.2864 8.52994C15.1145 9.37516 15.5706 10.5006 15.5706 11.6999C15.5706 14.2253 13.5208 16.2799 11.0007 16.2799C8.48071 16.2799 6.43042 14.2253 6.43042 11.6999C6.43042 10.5011 6.88647 9.37564 7.71509 8.52994C8.10132 8.1359 8.09497 7.5026 7.70044 7.11588C7.30688 6.73014 6.6731 6.736 6.28638 7.13053C5.0896 8.35172 4.43042 9.97428 4.43042 11.6999Z" />
</svg>
