<svg width="22" height="22" viewBox="0 0 22 22" fill="none"
  xmlns="http://www.w3.org/2000/svg">
  <path d="M19.6855 4.1525C19.394 3.98475 19.031 3.99208 18.7468 4.17175C18.4608 4.3505 18.2958 4.67133 18.3169 5.00775C18.3279 5.17 18.3343 5.335 18.3343 5.50092C18.3343 9.54433 15.0444 12.8343 11.001 12.8343C6.95759 12.8343 3.66676 9.54342 3.66676 5.5C3.66676 5.33408 3.67317 5.17 3.68417 5.00683C3.70526 4.67042 3.54117 4.34958 3.25426 4.17083C2.96826 3.99208 2.60709 3.98475 2.31559 4.15158C0.887424 4.96558 0.00100708 6.49183 0.00100708 8.13358V14.6657C0.00100708 17.193 2.05709 19.2491 4.58434 19.2491H10.0843V20.1658H7.33434C6.82742 20.1658 6.41767 20.5755 6.41767 21.0824C6.41767 21.5893 6.82742 21.9991 7.33434 21.9991H14.6677C15.1746 21.9991 15.5843 21.5893 15.5843 21.0824C15.5843 20.5755 15.1746 20.1658 14.6677 20.1658H11.9177V19.2491H17.4177C19.9449 19.2491 22.001 17.193 22.001 14.6657V8.13358C22.001 6.49183 21.1137 4.96558 19.6864 4.15158L19.6855 4.1525ZM15.4294 6.99417L14.9253 6.70358C15.0435 6.32042 15.1251 5.92167 15.1251 5.5C15.1251 5.07833 15.0435 4.67958 14.9253 4.29642L15.4294 4.00583C15.8685 3.75283 16.0188 3.19275 15.7658 2.75458C15.5128 2.3155 14.9528 2.16517 14.5137 2.41725L14.015 2.70508C13.4604 2.10742 12.7381 1.67383 11.9168 1.48592V0.916667C11.9168 0.410667 11.5061 0 11.0001 0C10.4941 0 10.0834 0.410667 10.0834 0.916667V1.48592C9.26209 1.67383 8.53884 2.10742 7.98517 2.70508L7.48651 2.41725C7.04742 2.16425 6.48734 2.3155 6.23434 2.75458C5.98134 3.19367 6.13259 3.75375 6.57076 4.00675L7.07492 4.29733C6.95667 4.6805 6.87509 5.07925 6.87509 5.50092C6.87509 5.92258 6.95667 6.32133 7.07492 6.7045L6.57076 6.99508C6.13167 7.24808 5.98134 7.80817 6.23434 8.24725C6.48734 8.68633 7.04742 8.83667 7.48651 8.58458L7.98517 8.29675C8.53976 8.89442 9.26209 9.328 10.0834 9.51592V10.0852C10.0834 10.5912 10.4941 11.0018 11.0001 11.0018C11.5061 11.0018 11.9168 10.5912 11.9168 10.0852V9.51592C12.7381 9.328 13.4613 8.89442 14.015 8.29675L14.5137 8.58458C14.9528 8.83758 15.5128 8.68633 15.7658 8.24817C16.0188 7.80908 15.8676 7.249 15.4294 6.996V6.99417ZM11.0001 6.87592C10.242 6.87592 9.62509 6.259 9.62509 5.50092C9.62509 4.74283 10.242 4.12592 11.0001 4.12592C11.7582 4.12592 12.3751 4.74283 12.3751 5.50092C12.3751 6.259 11.7582 6.87592 11.0001 6.87592Z" />
</svg>
