<svg width="19" height="22" viewBox="0 0 19 22" fill="none"
  xmlns="http://www.w3.org/2000/svg">
  <path d="M11 6.41667V0.421667C11.848 0.741891 12.6182 1.2387 13.2596 1.87917L16.4532 5.07467C17.0944 5.71531 17.5916 6.48532 17.9117 7.33333H11.9167C11.6736 7.33333 11.4404 7.23676 11.2685 7.06485C11.0966 6.89294 11 6.65978 11 6.41667ZM18.3333 9.61125V17.4167C18.3319 18.6318 17.8485 19.7967 16.9893 20.656C16.1301 21.5152 14.9651 21.9985 13.75 22H4.58333C3.3682 21.9985 2.20326 21.5152 1.34403 20.656C0.484808 19.7967 0.00145554 18.6318 0 17.4167V4.58333C0.00145554 3.3682 0.484808 2.20326 1.34403 1.34403C2.20326 0.484808 3.3682 0.00145554 4.58333 0L8.72208 0C8.8715 0 9.01908 0.0119167 9.16667 0.022V6.41667C9.16667 7.14601 9.4564 7.84549 9.97212 8.36121C10.4878 8.87694 11.1873 9.16667 11.9167 9.16667H18.3113C18.3214 9.31425 18.3333 9.46183 18.3333 9.61125ZM11 17.4167C11 17.1736 10.9034 16.9404 10.7315 16.7685C10.5596 16.5966 10.3264 16.5 10.0833 16.5H5.5C5.25689 16.5 5.02373 16.5966 4.85182 16.7685C4.67991 16.9404 4.58333 17.1736 4.58333 17.4167C4.58333 17.6598 4.67991 17.8929 4.85182 18.0648C5.02373 18.2368 5.25689 18.3333 5.5 18.3333H10.0833C10.3264 18.3333 10.5596 18.2368 10.7315 18.0648C10.9034 17.8929 11 17.6598 11 17.4167ZM13.75 13.75C13.75 13.5069 13.6534 13.2737 13.4815 13.1018C13.3096 12.9299 13.0764 12.8333 12.8333 12.8333H5.5C5.25689 12.8333 5.02373 12.9299 4.85182 13.1018C4.67991 13.2737 4.58333 13.5069 4.58333 13.75C4.58333 13.9931 4.67991 14.2263 4.85182 14.3982C5.02373 14.5701 5.25689 14.6667 5.5 14.6667H12.8333C13.0764 14.6667 13.3096 14.5701 13.4815 14.3982C13.6534 14.2263 13.75 13.9931 13.75 13.75Z"/>
</svg>
