<svg width="22" height="22" viewBox="0 0 22 22" fill="none"
  xmlns="http://www.w3.org/2000/svg">
  <path d="M21.9293 16.6228L19.6706 3.7895C19.4853 2.72731 18.9309 1.76468 18.1051 1.07138C17.2793 0.378078 16.2352 -0.00135253 15.157 5.29388e-06H6.82904C5.74996 -0.00163536 4.70502 0.378118 3.87877 1.07219C3.05253 1.76626 2.49814 2.73 2.31354 3.79317L0.0686263 16.6265C-0.0466572 17.2852 -0.0164136 17.9611 0.157235 18.6069C0.330884 19.2526 0.643732 19.8526 1.07383 20.3646C1.50393 20.8766 2.04085 21.2883 2.64694 21.5709C3.25303 21.8534 3.91359 21.9998 4.58229 22H17.4156C18.0848 22.0001 18.7458 21.8536 19.3523 21.571C19.9588 21.2883 20.4961 20.8762 20.9263 20.3638C21.3566 19.8513 21.6694 19.2508 21.8429 18.6046C22.0163 17.9583 22.0452 17.2819 21.9293 16.6228ZM11.9156 18.3333C11.9156 18.5764 11.819 18.8096 11.6471 18.9815C11.4752 19.1534 11.2421 19.25 10.999 19.25C10.7558 19.25 10.5227 19.1534 10.3508 18.9815C10.1789 18.8096 10.0823 18.5764 10.0823 18.3333V16.5C10.0823 16.2569 10.1789 16.0237 10.3508 15.8518C10.5227 15.6799 10.7558 15.5833 10.999 15.5833C11.2421 15.5833 11.4752 15.6799 11.6471 15.8518C11.819 16.0237 11.9156 16.2569 11.9156 16.5V18.3333ZM11.9156 11.9167C11.9156 12.1598 11.819 12.3929 11.6471 12.5648C11.4752 12.7368 11.2421 12.8333 10.999 12.8333C10.7558 12.8333 10.5227 12.7368 10.3508 12.5648C10.1789 12.3929 10.0823 12.1598 10.0823 11.9167V10.0833C10.0823 9.84022 10.1789 9.60706 10.3508 9.43515C10.5227 9.26325 10.7558 9.16667 10.999 9.16667C11.2421 9.16667 11.4752 9.26325 11.6471 9.43515C11.819 9.60706 11.9156 9.84022 11.9156 10.0833V11.9167ZM11.9156 5.5C11.9156 5.74312 11.819 5.97628 11.6471 6.14818C11.4752 6.32009 11.2421 6.41667 10.999 6.41667C10.7558 6.41667 10.5227 6.32009 10.3508 6.14818C10.1789 5.97628 10.0823 5.74312 10.0823 5.5V3.66667C10.0823 3.42356 10.1789 3.1904 10.3508 3.01849C10.5227 2.84658 10.7558 2.75 10.999 2.75C11.2421 2.75 11.4752 2.84658 11.6471 3.01849C11.819 3.1904 11.9156 3.42356 11.9156 3.66667V5.5Z"/>
</svg>
