<svg width="22" height="22" viewBox="0 0 22 22" fill="none"
  xmlns="http://www.w3.org/2000/svg">
  <path d="M21.9083 10.4839C21.5482 7.71138 20.1458 5.18002 17.9862 3.40435C15.8267 1.62868 13.072 0.741953 10.2822 0.924404C7.49229 1.10685 4.87657 2.34479 2.96667 4.38659C1.05677 6.42839 -0.00398459 9.12083 6.84767e-06 11.9167C-0.00527719 13.4131 0.297977 14.8946 0.890837 16.2687C1.4837 17.6427 2.35344 18.8798 3.44576 19.9027C4.28115 20.6761 5.3819 21.0988 6.52026 21.0833H15.4733C16.676 21.0861 17.8314 20.6156 18.6899 19.7734C19.9134 18.5831 20.8416 17.1231 21.4004 15.5102C21.9592 13.8973 22.1332 12.176 21.9083 10.4839ZM6.84934 18.0226C6.7698 18.113 6.67322 18.1869 6.5651 18.24C6.45699 18.2931 6.33948 18.3244 6.21927 18.3321C6.09907 18.3397 5.97853 18.3236 5.86455 18.2847C5.75057 18.2457 5.64539 18.1847 5.55501 18.1051C4.29513 16.999 3.40246 15.535 2.99608 13.9084C2.58969 12.2819 2.68891 10.5701 3.2805 9.0014C3.87209 7.4327 4.92792 6.08167 6.30715 5.12851C7.68639 4.17536 9.32346 3.6654 11 3.66666C11.6953 3.66687 12.3879 3.75402 13.0616 3.92608C13.1782 3.95617 13.2878 4.00895 13.3841 4.08139C13.4803 4.15383 13.5614 4.24452 13.6226 4.34828C13.6838 4.45205 13.7239 4.56685 13.7408 4.68613C13.7576 4.80542 13.7508 4.92685 13.7207 5.04349C13.6906 5.16014 13.6378 5.26972 13.5654 5.36597C13.4929 5.46222 13.4022 5.54326 13.2985 5.60446C13.1947 5.66566 13.0799 5.70583 12.9606 5.72266C12.8413 5.7395 12.7199 5.73267 12.6033 5.70258C11.2067 5.34061 9.72892 5.46024 8.40879 6.04214C7.08866 6.62404 6.00339 7.63419 5.32844 8.90925C4.65349 10.1843 4.42832 11.6497 4.68934 13.0686C4.95036 14.4875 5.68231 15.7769 6.76684 16.7282C6.85729 16.8078 6.93118 16.9044 6.98429 17.0125C7.03739 17.1206 7.06867 17.2381 7.07633 17.3583C7.08399 17.4785 7.06789 17.5991 7.02894 17.713C6.98999 17.827 6.92896 17.9322 6.84934 18.0226ZM11 13.75C10.7372 13.7535 10.4767 13.7004 10.2363 13.5944C9.99578 13.4883 9.7809 13.3319 9.6062 13.1355C9.43149 12.9392 9.30104 12.7076 9.22369 12.4564C9.14634 12.2052 9.1239 11.9403 9.15789 11.6797C9.19187 11.4191 9.28149 11.1689 9.42067 10.9459C9.55985 10.723 9.74534 10.5326 9.96456 10.3876C10.1838 10.2427 10.4316 10.1465 10.6912 10.1057C10.9509 10.0649 11.2162 10.0804 11.4693 10.1512L14.9353 6.68524C15.0198 6.59769 15.121 6.52786 15.2328 6.47982C15.3446 6.43178 15.4649 6.40649 15.5866 6.40543C15.7084 6.40437 15.8291 6.42757 15.9417 6.47366C16.0544 6.51975 16.1567 6.58781 16.2428 6.67388C16.3289 6.75995 16.3969 6.8623 16.443 6.97495C16.4891 7.08761 16.5123 7.20831 16.5112 7.33003C16.5102 7.45174 16.4849 7.57203 16.4368 7.68386C16.3888 7.7957 16.319 7.89685 16.2314 7.98141L12.7655 11.4473C12.8419 11.7184 12.8541 12.0037 12.801 12.2803C12.7479 12.5569 12.631 12.8174 12.4596 13.0409C12.2882 13.2645 12.067 13.4449 11.8136 13.568C11.5603 13.6911 11.2817 13.7534 11 13.75ZM16.445 18.1051C16.2617 18.2589 16.0256 18.335 15.7869 18.3171C15.5483 18.2991 15.3262 18.1886 15.1679 18.0091C15.0097 17.8296 14.928 17.5953 14.9402 17.3563C14.9524 17.1173 15.0575 16.8926 15.2332 16.7301C16.1245 15.9484 16.7816 14.9348 17.1313 13.8019C17.481 12.6691 17.5097 11.4615 17.2141 10.3134C17.1533 10.0778 17.1886 9.82776 17.3122 9.6182C17.4358 9.40864 17.6376 9.25677 17.8732 9.19599C18.1088 9.13521 18.3588 9.17051 18.5684 9.29411C18.7779 9.41771 18.9298 9.6195 18.9906 9.85508C19.1627 10.5288 19.2499 11.2213 19.25 11.9167C19.2487 13.0882 18.9978 14.246 18.5142 15.313C18.0305 16.3801 17.3251 17.3319 16.445 18.1051Z"/>
</svg>
