<svg width="22" height="22" viewBox="0 0 22 22" fill="none"
  xmlns="http://www.w3.org/2000/svg">
  <path d="M12.8333 6.41667C12.8333 6.77927 12.7258 7.13372 12.5244 7.43521C12.3229 7.7367 12.0366 7.97169 11.7016 8.11045C11.3666 8.24921 10.998 8.28551 10.6423 8.21477C10.2867 8.14403 9.96003 7.96943 9.70363 7.71303C9.44724 7.45663 9.27263 7.12996 9.20189 6.77433C9.13115 6.4187 9.16745 6.05008 9.30622 5.71508C9.44498 5.38008 9.67996 5.09376 9.98145 4.89231C10.2829 4.69086 10.6374 4.58333 11 4.58333C11.4862 4.58333 11.9525 4.77649 12.2964 5.1203C12.6402 5.46412 12.8333 5.93044 12.8333 6.41667ZM15.5448 11.1687L12.7417 13.9471C12.5142 14.1764 12.2436 14.3584 11.9455 14.4826C11.6473 14.6068 11.3276 14.6708 11.0046 14.6708C10.6816 14.6708 10.3618 14.6068 10.0637 14.4826C9.76553 14.3584 9.49494 14.1764 9.26749 13.9471L6.46616 11.1833C5.26327 9.94323 4.58963 8.28405 4.58757 6.55639C4.58552 4.82874 5.25522 3.16796 6.45516 1.925C7.04491 1.31568 7.75116 0.831172 8.53193 0.500282C9.31269 0.169391 10.152 -0.00112343 11 -0.00112343C11.848 -0.00112343 12.6873 0.169391 13.4681 0.500282C14.2488 0.831172 14.9551 1.31568 15.5448 1.925C16.743 3.16528 17.4126 4.82236 17.4126 6.54683C17.4126 8.2713 16.743 9.92839 15.5448 11.1687ZM14.6667 6.41667C14.6667 5.69147 14.4516 4.98256 14.0487 4.37958C13.6458 3.7766 13.0732 3.30663 12.4032 3.02911C11.7332 2.75159 10.9959 2.67898 10.2847 2.82045C9.5734 2.96193 8.92006 3.31115 8.40727 3.82394C7.89448 4.33673 7.54526 4.99007 7.40378 5.70134C7.2623 6.4126 7.33491 7.14984 7.61244 7.81984C7.88996 8.48984 8.35992 9.06249 8.9629 9.46539C9.56588 9.86829 10.2748 10.0833 11 10.0833C11.9725 10.0833 12.9051 9.69703 13.5927 9.00939C14.2804 8.32176 14.6667 7.38913 14.6667 6.41667ZM19.0236 8.43333C18.689 9.94835 17.9386 11.34 16.8566 12.452L14.0351 15.2506C13.6381 15.6485 13.1667 15.9643 12.6476 16.18C12.1286 16.3956 11.5721 16.5068 11.0101 16.5073C10.4483 16.5075 9.89204 16.3971 9.373 16.1822C8.85396 15.9674 8.38234 15.6523 7.98508 15.2552L5.17733 12.4841C4.10954 11.3879 3.36013 10.0219 3.00941 8.53233C2.41403 8.75057 1.86965 9.08843 1.40983 9.52508C0.961624 9.95121 0.605338 10.4645 0.362884 11.0335C0.12043 11.6024 -0.00306507 12.2149 -5.5476e-06 12.8333V16.5688C0.00192092 17.56 0.324304 18.524 0.919036 19.317C1.51377 20.1099 2.34896 20.6894 3.29999 20.9688L5.93083 21.7938C6.37272 21.9313 6.83295 22.0008 7.29575 22C7.71557 21.9995 8.13339 21.9421 8.53783 21.8295L13.8362 20.262C14.3081 20.1327 14.8061 20.1327 15.2781 20.262L17.4662 20.9953C18.0054 21.1266 18.5675 21.1337 19.1099 21.0162C19.6523 20.8986 20.161 20.6595 20.5975 20.3167C21.0341 19.974 21.3872 19.5367 21.6301 19.0376C21.873 18.5386 21.9995 17.9909 22 17.4359V12.716C21.9969 11.7845 21.7105 10.876 21.1789 10.1111C20.6472 9.34614 19.8956 8.761 19.0236 8.43333Z" />
</svg>
